<?xml version="1.0" standalone="no"?>
<!DOCTYPE svg PUBLIC "-//W3C//DTD SVG 20010904//EN"
 "http://www.w3.org/TR/2001/REC-SVG-20010904/DTD/svg10.dtd">
<svg version="1.0" xmlns="http://www.w3.org/2000/svg"
 width="822.000000pt" height="752.000000pt" viewBox="0 0 822.000000 752.000000"
 preserveAspectRatio="xMidYMid meet">

<g transform="translate(0.000000,752.000000) scale(0.100000,-0.100000)"
fill="#000000" stroke="none">
<path d="M3130 6653 c-8 -3 -33 -18 -55 -33 -22 -15 -72 -43 -110 -63 -138
-69 -181 -138 -264 -424 -20 -69 -23 -73 -104 -139 -45 -38 -128 -113 -184
-168 -73 -70 -103 -93 -103 -80 1 32 35 96 81 153 134 164 144 182 164 285 18
98 34 127 99 178 30 24 55 51 55 61 1 27 -16 20 -67 -27 -26 -24 -85 -73 -132
-110 -179 -142 -219 -222 -241 -493 l-10 -127 -73 -95 c-40 -53 -98 -133 -130
-178 -32 -46 -62 -86 -68 -89 -22 -14 2 61 56 176 71 151 67 137 76 281 9 141
16 161 85 239 25 28 45 57 45 65 0 32 -31 12 -77 -47 -26 -35 -81 -99 -122
-142 -41 -45 -85 -103 -98 -133 -24 -52 -24 -57 -21 -295 l3 -243 -67 -146
c-37 -81 -77 -177 -90 -213 -13 -36 -26 -66 -30 -66 -16 0 -7 88 17 175 29
104 31 180 10 310 -19 111 -14 145 34 227 64 110 73 161 18 106 -24 -24 -137
-223 -184 -323 -41 -88 -37 -192 12 -380 62 -230 62 -233 32 -360 -14 -60 -31
-141 -37 -180 -6 -38 -13 -71 -16 -74 -12 -13 -18 17 -14 77 3 37 4 104 3 148
-1 73 -6 92 -49 190 -59 136 -63 176 -30 273 14 41 26 86 26 100 0 25 0 25
-20 5 -24 -24 -51 -99 -90 -251 -51 -197 -42 -254 80 -488 l78 -150 4 -253 c2
-172 0 -251 -7 -249 -15 5 -32 65 -45 158 -15 109 -40 178 -94 259 -90 135
-91 141 -89 278 2 100 0 122 -11 122 -19 0 -32 -70 -44 -250 -12 -167 -4 -241
34 -309 26 -49 122 -176 216 -289 57 -68 58 -70 83 -193 14 -68 33 -157 44
-196 30 -116 -5 -86 -44 37 -32 102 -73 165 -152 236 -97 87 -119 123 -141
224 -19 85 -42 119 -42 61 0 -33 43 -278 61 -346 24 -93 83 -158 265 -298
l102 -78 42 -107 c24 -59 60 -142 82 -186 22 -43 37 -81 34 -84 -12 -12 -47
34 -97 129 -60 115 -102 156 -190 189 -93 35 -135 71 -171 146 -36 76 -48 87
-48 43 0 -51 123 -290 183 -355 42 -47 73 -66 205 -132 119 -59 159 -84 171
-106 37 -66 163 -250 221 -321 34 -42 60 -79 57 -82 -12 -11 -73 38 -112 89
-99 132 -136 159 -258 196 -100 30 -159 72 -211 152 -52 79 -62 87 -69 60 -6
-24 24 -83 108 -210 116 -176 149 -199 455 -306 l165 -58 115 -111 c63 -61
139 -131 169 -155 38 -31 50 -46 39 -48 -28 -5 -96 36 -171 105 -97 89 -149
113 -252 113 -106 0 -141 11 -205 66 -38 32 -55 42 -61 33 -12 -20 4 -40 113
-144 180 -171 212 -184 488 -210 l175 -17 105 -67 c58 -37 144 -89 193 -116
85 -48 104 -65 70 -65 -46 1 -102 22 -162 63 -110 74 -114 76 -252 76 -146 1
-210 15 -284 65 -47 31 -54 33 -60 18 -5 -12 6 -28 37 -55 60 -55 192 -141
271 -178 78 -36 112 -38 387 -25 l175 9 100 -43 c55 -23 144 -57 197 -74 54
-17 96 -35 95 -41 -2 -5 -27 -11 -55 -13 -42 -2 -67 4 -130 31 -111 50 -113
50 -209 27 -122 -31 -273 -25 -353 13 -55 26 -75 22 -48 -10 18 -22 135 -76
265 -121 101 -35 116 -37 223 -37 94 1 133 6 214 28 54 15 119 36 143 47 44
19 45 19 136 -1 51 -11 148 -28 216 -37 69 -10 126 -23 129 -30 6 -19 -67 -26
-147 -13 -115 17 -135 14 -226 -30 -103 -51 -208 -67 -323 -50 -41 6 -77 9
-79 7 -3 -2 4 -13 14 -23 29 -29 268 -68 418 -68 l120 0 104 53 c57 29 127 69
156 88 40 27 61 35 86 32 l34 -3 -65 -49 c-36 -28 -112 -95 -170 -151 -179
-172 -201 -187 -320 -209 l-64 -12 94 -22 c55 -13 134 -24 188 -25 l93 -2 28
85 c69 214 206 380 314 380 13 0 44 -13 69 -29 91 -58 178 -188 228 -341 l33
-100 52 0 c58 0 207 24 275 44 l44 13 -50 5 c-92 9 -156 48 -288 176 -66 65
-156 145 -199 177 -77 57 -85 78 -29 67 15 -3 52 -22 82 -42 30 -21 98 -59
150 -86 l95 -49 120 0 c121 1 359 34 410 57 39 17 33 41 -7 32 -51 -11 -218
-8 -268 6 -24 6 -77 28 -118 47 -79 39 -61 37 -252 17 -60 -6 -127 11 -100 25
8 5 62 14 120 20 58 6 151 22 208 35 l103 23 76 -29 c165 -64 338 -84 456 -53
123 32 311 110 361 150 40 31 2 34 -63 4 -57 -26 -75 -29 -165 -29 -72 0 -125
6 -183 21 l-83 22 -100 -42 c-100 -41 -168 -52 -200 -31 -13 8 -13 10 0 14 8
3 62 22 120 42 58 19 143 52 189 71 l83 36 162 -9 c238 -13 311 -10 376 16
106 42 330 203 330 236 0 21 -16 17 -73 -20 -64 -42 -132 -56 -279 -56 -123 0
-144 -6 -243 -74 -63 -43 -118 -66 -158 -66 -37 0 -8 25 99 84 60 34 143 85
184 113 l75 52 175 15 c201 18 256 30 325 74 94 58 285 245 285 278 0 23 -16
16 -67 -27 -66 -58 -98 -69 -201 -69 -109 0 -153 -20 -262 -116 -90 -79 -170
-124 -170 -95 0 4 28 30 63 57 34 27 110 95 168 151 l105 103 190 68 c236 86
281 109 335 171 62 71 187 270 195 310 11 53 -20 36 -69 -38 -51 -79 -113
-123 -210 -152 -104 -30 -157 -68 -237 -170 -64 -81 -130 -136 -130 -109 0 6
24 41 54 78 61 77 146 199 202 291 l38 63 151 72 c171 82 220 123 279 228 48
86 116 244 116 269 0 35 -18 20 -45 -38 -38 -81 -77 -118 -164 -154 -41 -17
-86 -38 -99 -47 -28 -18 -67 -74 -116 -167 -39 -72 -71 -113 -81 -103 -4 3 6
30 21 60 15 29 50 109 79 178 l51 125 108 86 c123 98 212 183 230 219 16 31
49 165 71 290 9 52 19 107 21 122 6 31 -11 46 -24 21 -5 -10 -17 -52 -26 -94
-19 -88 -41 -120 -139 -210 -78 -70 -106 -114 -148 -229 -63 -173 -71 -159
-26 42 20 84 38 173 42 198 5 37 18 59 71 120 97 111 188 234 220 298 21 44
28 75 32 137 4 94 -23 384 -38 399 -20 20 -27 -14 -22 -118 5 -118 -3 -143
-84 -267 -62 -95 -80 -146 -103 -282 -22 -128 -27 -143 -48 -151 -12 -5 -14
-1 -8 21 4 16 8 132 9 258 l2 231 68 128 c91 173 116 241 116 320 0 140 -87
446 -126 446 -16 0 -10 -37 18 -119 30 -90 25 -140 -30 -255 l-47 -101 1 -162
c0 -117 -3 -163 -11 -163 -7 0 -17 33 -23 81 -7 44 -24 131 -38 193 l-27 112
41 150 c90 332 87 370 -49 617 -73 131 -112 187 -131 187 -17 0 -1 -43 44
-120 51 -89 56 -134 33 -265 -20 -111 -16 -187 14 -285 25 -79 38 -170 24
-170 -6 0 -33 55 -60 123 -28 67 -72 167 -98 222 l-46 100 8 145 c4 80 7 186
7 237 -1 118 -24 167 -136 289 -46 50 -100 112 -121 137 -35 43 -67 61 -67 38
0 -5 21 -33 46 -63 66 -77 75 -100 85 -217 15 -165 24 -204 79 -314 49 -98 76
-188 52 -174 -5 4 -35 44 -65 90 -30 45 -89 126 -130 180 l-75 98 -7 107 c-17
266 -64 367 -237 504 -51 41 -104 87 -118 102 -22 24 -70 56 -85 56 -20 0 4
-35 56 -80 68 -59 82 -84 99 -179 15 -85 44 -138 130 -241 74 -89 110 -151
110 -190 0 -19 -23 -1 -127 101 -71 69 -154 144 -185 168 -46 34 -60 52 -69
85 -62 229 -108 335 -172 392 -22 20 -70 50 -106 66 -36 17 -87 45 -112 64
-74 54 -94 41 -35 -23 18 -21 49 -70 69 -108 43 -86 99 -153 194 -234 104 -88
144 -172 53 -111 -25 17 -83 54 -130 82 -60 36 -116 83 -190 158 -114 117
-177 155 -303 185 -150 37 -437 27 -490 -15 -21 -18 -20 -18 58 -25 104 -9
143 -28 256 -128 52 -45 110 -92 129 -104 70 -43 169 -55 330 -39 l75 7 111
-66 c127 -76 209 -136 206 -150 -1 -5 -23 -11 -48 -13 -40 -3 -65 6 -173 57
-69 33 -142 63 -161 66 -20 4 -83 -1 -142 -9 -58 -9 -153 -16 -212 -16 -88 0
-106 -3 -106 -15 0 -8 3 -15 8 -15 61 -1 149 -28 245 -78 l112 -57 105 0 c58
0 187 4 287 9 l182 9 83 -71 c108 -92 258 -245 258 -264 0 -12 -8 -14 -37 -8
-52 9 -78 24 -152 87 -106 90 -136 101 -326 118 -91 8 -191 22 -222 30 -96 25
-80 -7 22 -44 38 -13 84 -42 125 -77 123 -105 133 -109 413 -144 89 -11 185
-27 213 -35 48 -14 54 -20 132 -127 92 -129 176 -272 163 -276 -21 -7 -73 32
-133 100 -126 144 -148 157 -340 207 -65 17 -136 40 -158 51 -71 36 -90 41
-90 25 0 -8 25 -29 55 -46 33 -19 79 -58 113 -98 125 -144 121 -142 302 -205
91 -32 197 -71 236 -87 l71 -30 48 -107 c61 -136 127 -336 114 -341 -20 -6
-66 50 -119 146 -29 53 -70 113 -90 133 -21 21 -94 66 -171 105 -74 38 -157
85 -186 107 -58 42 -63 44 -63 24 0 -8 22 -32 48 -54 33 -28 63 -67 93 -123
66 -123 93 -155 172 -206 40 -25 136 -88 214 -139 l141 -92 11 -54 c15 -76 39
-225 44 -281 9 -93 -30 -40 -84 115 -39 111 -81 159 -225 258 -68 48 -115 88
-131 113 -13 21 -27 37 -29 34 -3 -2 6 -35 20 -73 13 -38 34 -101 45 -139 29
-100 68 -152 200 -268 64 -56 140 -125 170 -154 l54 -52 -6 -168 c-7 -186 -15
-263 -28 -263 -20 0 -37 62 -42 153 -8 136 -31 182 -163 317 -59 61 -112 125
-124 150 l-20 45 5 -45 c3 -25 10 -84 15 -132 14 -122 25 -148 122 -278 47
-63 111 -154 143 -202 57 -86 58 -88 51 -140 -15 -117 -92 -381 -109 -375 -21
7 -27 62 -17 152 6 50 13 102 16 116 7 35 -31 128 -90 218 -65 102 -96 166
-96 201 0 17 -4 29 -8 26 -10 -6 -26 -186 -26 -276 0 -45 9 -73 47 -153 54
-109 134 -311 143 -357 7 -34 -9 -76 -88 -235 -76 -152 -99 -189 -109 -173
-16 24 -9 62 26 161 19 54 35 117 35 140 0 48 -21 124 -75 276 -26 74 -35 115
-32 138 3 18 2 33 -3 33 -10 0 -20 -25 -20 -51 0 -11 -14 -61 -30 -112 -42
-127 -49 -216 -22 -298 32 -95 82 -309 82 -346 0 -24 -15 -54 -51 -105 -70
-99 -180 -237 -218 -272 l-31 -30 0 27 c0 14 29 83 65 152 73 142 75 155 51
296 -24 139 -28 192 -18 237 10 44 -5 63 -16 20 -3 -13 -24 -59 -47 -103 -101
-192 -121 -310 -92 -555 l15 -125 -71 -68 c-89 -83 -223 -193 -259 -213 -27
-14 -28 -14 -28 14 0 33 33 82 126 189 34 39 65 80 68 90 15 51 26 146 26 220
0 64 5 96 21 134 12 27 19 52 16 55 -3 4 -22 -18 -41 -47 -19 -30 -55 -78 -79
-107 -69 -83 -126 -190 -142 -268 -8 -38 -21 -127 -29 -199 -15 -127 -16 -131
-48 -158 -33 -28 -238 -147 -310 -180 -31 -14 -38 -14 -38 -3 0 21 54 72 132
123 90 60 107 91 173 331 19 67 43 136 55 153 55 77 -15 22 -174 -136 -84 -84
-115 -138 -166 -290 -21 -62 -51 -139 -66 -170 -31 -67 -52 -79 -267 -151
-140 -48 -217 -64 -217 -46 0 20 65 65 148 103 149 69 165 84 233 225 47 98
70 135 111 174 29 27 49 52 46 55 -7 8 -57 -17 -113 -55 -22 -15 -69 -42 -103
-59 -87 -44 -136 -92 -228 -224 -127 -182 -191 -255 -233 -267 -58 -15 -237
-40 -291 -40 -40 0 -48 3 -43 15 7 20 63 49 138 70 129 37 176 74 260 204 31
46 67 87 99 110 64 46 43 52 -57 18 -40 -14 -104 -35 -143 -46 -87 -25 -133
-64 -247 -205 -44 -56 -99 -118 -121 -139 -38 -35 -42 -37 -108 -37 -64 0 -70
2 -108 36 -22 20 -79 85 -126 145 -109 137 -154 172 -264 205 -47 15 -116 37
-155 50 -74 24 -96 23 -55 -5 54 -36 95 -79 138 -146 79 -125 104 -143 263
-195 127 -41 169 -80 87 -80 -52 0 -235 26 -288 40 -49 13 -114 84 -219 237
-100 147 -172 218 -272 268 -41 21 -92 50 -114 65 -22 15 -51 31 -65 35 -29 9
-28 7 48 -71 36 -37 59 -75 87 -142 53 -130 84 -161 224 -231 118 -60 177
-103 166 -121 -3 -6 -18 -7 -33 -4 -57 13 -280 87 -350 116 -87 36 -89 40
-169 263 -29 83 -69 173 -87 200 -32 49 -262 272 -271 263 -2 -2 6 -20 20 -39
13 -18 38 -88 55 -154 38 -144 75 -242 104 -273 11 -13 56 -48 98 -78 74 -52
118 -98 105 -110 -7 -8 -211 99 -305 160 -38 24 -72 52 -76 61 -3 9 -11 58
-16 108 -18 163 -32 240 -52 292 -25 64 -98 183 -133 215 -15 14 -43 50 -63
80 -36 56 -56 57 -28 1 11 -20 18 -71 22 -153 8 -171 20 -206 103 -306 79 -93
106 -135 116 -174 5 -21 3 -28 -7 -28 -19 0 -155 109 -262 211 l-88 84 12 127
c24 241 2 395 -74 521 -17 29 -40 73 -50 99 -26 69 -37 69 -30 1 4 -35 -1
-104 -11 -173 -29 -194 -27 -211 38 -333 54 -101 85 -187 66 -187 -19 0 -233
269 -284 357 -19 32 -19 34 9 160 15 70 40 164 54 208 33 103 32 155 -7 295
-17 63 -36 135 -43 160 l-12 45 -7 -65 c-3 -36 -23 -110 -44 -165 -63 -171
-67 -186 -61 -247 3 -31 19 -91 36 -132 29 -74 41 -166 21 -166 -14 0 -113
188 -162 305 l-40 96 17 52 c27 85 100 260 141 339 36 70 38 77 38 168 -1 130
-15 257 -26 239 -5 -8 -9 -24 -9 -37 0 -29 -26 -79 -94 -184 -85 -133 -91
-156 -76 -297 13 -124 8 -191 -14 -191 -18 0 -81 222 -105 370 l-10 63 45 71
c26 39 88 127 139 196 51 69 100 140 109 158 9 18 21 72 27 120 5 48 15 109
20 135 15 64 4 71 -20 13 -13 -30 -58 -85 -130 -159 -61 -64 -117 -131 -126
-153 -9 -22 -20 -85 -24 -144 -8 -105 -25 -164 -45 -157 -17 5 -24 86 -25 269
l-1 167 63 59 c34 32 109 101 167 154 129 116 153 150 186 258 14 47 34 109
46 137 25 65 19 89 -10 40 -12 -21 -51 -58 -88 -84 -163 -117 -185 -135 -213
-173 -16 -23 -46 -87 -67 -145 -35 -97 -67 -156 -77 -145 -9 9 36 296 59 382
4 15 121 95 339 231 95 59 114 81 190 219 21 40 58 86 87 112 30 26 49 50 46
60 -2 13 -14 9 -58 -23 -30 -21 -114 -69 -187 -105 -152 -77 -192 -114 -263
-246 -45 -84 -89 -140 -109 -140 -17 0 -14 14 23 124 52 155 121 309 148 328
12 10 117 52 233 93 115 41 223 85 240 96 16 12 62 59 100 106 46 55 89 96
125 117 30 18 56 39 58 48 3 13 -13 9 -75 -17 -43 -19 -132 -48 -198 -65 -148
-39 -187 -61 -267 -152 -82 -93 -107 -117 -141 -135 -61 -31 -47 5 72 182 41
60 90 130 110 155 19 25 36 46 37 48 3 4 141 27 289 47 247 33 237 29 341 111
97 76 141 102 207 123 54 18 50 42 -5 30 -23 -6 -45 -12 -49 -14 -4 -3 -84
-11 -178 -19 -198 -17 -219 -24 -336 -116 -44 -34 -92 -68 -107 -76 -29 -15
-88 -19 -88 -6 0 16 140 160 240 247 l101 88 197 -9 c108 -5 238 -9 289 -9
l92 0 113 58 c79 40 134 62 182 70 38 7 71 18 74 25 3 9 -24 12 -110 12 -63 0
-141 5 -174 11 -32 6 -93 12 -135 13 -75 1 -78 0 -200 -62 -99 -50 -133 -62
-169 -62 -75 1 -79 12 -19 58 30 22 104 70 166 107 l111 67 119 -11 c194 -19
253 1 408 140 109 96 165 125 263 134 132 13 58 49 -128 64 -286 23 -499 -63
-664 -268 -15 -19 -74 -62 -129 -96 -56 -33 -120 -73 -142 -88 -22 -15 -41
-23 -43 -17 -7 20 39 76 115 140 90 76 141 140 184 227 16 35 48 83 69 109 49
56 50 62 10 47z"/>
<path d="M4335 5908 c-3 -7 -6 -76 -7 -153 l-3 -140 -78 103 c-43 56 -80 102
-82 102 -3 0 -5 -163 -5 -363 l0 -363 85 -114 85 -115 0 -72 0 -72 -65 45
c-110 77 -195 97 -475 109 -228 10 -364 38 -496 101 -82 39 -137 93 -155 155
-16 51 -56 79 -115 79 -69 0 -114 -60 -100 -134 7 -35 26 -57 81 -90 l34 -21
-160 -355 c-208 -461 -402 -884 -499 -1087 l-78 -161 37 -35 c384 -369 1037
-376 1435 -15 l49 44 -21 30 c-12 16 -158 331 -325 699 -389 856 -386 849
-382 853 2 2 88 -13 192 -33 103 -19 202 -38 218 -41 17 -3 84 -18 150 -34
349 -83 545 -186 641 -337 l34 -52 0 -1116 c0 -818 -3 -1115 -11 -1115 -6 0
-38 14 -70 32 -32 18 -61 30 -64 27 -5 -5 145 -343 187 -424 l16 -30 47 100
c100 215 157 347 152 351 -3 3 -33 -9 -67 -26 -41 -21 -66 -28 -72 -22 -7 7
-9 393 -7 1119 l4 1108 28 47 c94 161 333 276 757 362 317 64 442 87 446 83 3
-2 -109 -254 -247 -558 -389 -857 -428 -941 -454 -981 l-24 -36 52 -49 c193
-180 427 -267 722 -266 156 1 263 22 407 83 82 34 225 125 298 189 l45 40 -23
43 c-53 97 -290 611 -578 1252 l-138 309 24 16 c14 9 40 30 58 47 27 27 32 39
32 79 0 132 -180 146 -218 16 -17 -56 -94 -122 -190 -161 -115 -49 -274 -77
-495 -90 -269 -15 -352 -36 -457 -115 l-35 -26 -9 30 c-18 63 0 109 89 230
l85 114 0 363 c0 200 -2 364 -5 364 -3 0 -37 -43 -75 -94 -39 -52 -74 -97 -79
-101 -15 -9 -23 33 -20 109 1 39 2 95 1 124 l-2 52 -50 0 c-31 0 -52 -5 -55
-12z m75 -117 c0 -55 -3 -70 -17 -75 -24 -9 -33 11 -33 76 0 56 3 61 43 67 4
0 7 -30 7 -68z m160 -144 c0 -36 -8 -55 -52 -115 -63 -85 -78 -94 -78 -49 0
23 13 52 43 93 55 78 81 113 85 114 1 0 2 -19 2 -43z m-296 -43 c45 -61 56
-84 56 -115 0 -52 -13 -44 -77 44 -41 56 -53 80 -53 110 0 20 4 37 9 37 5 0
35 -34 65 -76z m-1 -173 c43 -59 57 -86 57 -112 l-1 -34 -35 40 c-62 69 -94
122 -94 154 0 17 4 31 8 31 5 0 34 -35 65 -79z m235 -73 l-63 -83 -3 38 c-3
40 3 52 87 157 l36 45 3 -37 c3 -33 -5 -48 -60 -120z m-230 -92 c36 -52 52
-83 52 -105 0 -43 -15 -33 -79 51 -39 51 -51 75 -51 102 0 49 15 40 78 -48z
m237 -62 c-30 -41 -60 -74 -65 -74 -35 0 19 115 94 198 l21 24 3 -37 c3 -31
-5 -47 -53 -111z m-241 -100 c43 -58 56 -85 56 -111 0 -45 -10 -37 -80 57 -35
47 -50 77 -50 99 0 17 4 31 9 31 5 0 35 -34 65 -76z m264 -36 c-46 -61 -80
-98 -90 -98 -4 0 -8 12 -8 27 0 26 16 52 89 143 l36 45 3 -37 c3 -30 -4 -47
-30 -80z m-1338 -448 c164 -355 546 -1201 555 -1229 l6 -21 -700 0 c-530 0
-701 3 -701 12 0 22 695 1537 702 1530 4 -4 66 -135 138 -292z m2833 -390
c349 -771 377 -834 377 -849 0 -8 -202 -11 -700 -11 -398 0 -700 4 -700 9 0 5
63 148 141 317 78 170 233 511 346 759 112 247 207 453 210 458 3 5 9 5 13 0
4 -4 144 -312 313 -683z"/>
</g>
</svg>
