<?xml version="1.0" standalone="no"?>
<!DOCTYPE svg PUBLIC "-//W3C//DTD SVG 20010904//EN"
 "http://www.w3.org/TR/2001/REC-SVG-20010904/DTD/svg10.dtd">
<svg version="1.0" xmlns="http://www.w3.org/2000/svg"
 width="1096.000000pt" height="1096.000000pt" viewBox="0 0 1096.000000 1096.000000"
 preserveAspectRatio="xMidYMid meet">
<metadata>
Created by potrace 1.14, written by Peter Selinger 2001-2017
</metadata>
<g transform="translate(0.000000,1096.000000) scale(0.100000,-0.100000)"
fill="#000000" stroke="none">
<path d="M4095 9287 c-50 -29 -118 -68 -153 -87 -164 -87 -231 -193 -328 -515
-14 -49 -33 -102 -40 -117 -8 -15 -73 -80 -146 -145 -73 -65 -177 -160 -232
-210 -54 -51 -103 -93 -107 -93 -35 0 33 123 152 275 117 149 140 194 168 322
26 121 40 145 129 229 57 54 74 75 69 89 -6 15 -10 15 -24 4 -166 -132 -382
-322 -412 -362 -90 -120 -120 -225 -145 -494 -8 -89 -18 -168 -23 -175 -4 -7
-68 -94 -142 -193 -74 -99 -152 -205 -174 -234 -73 -98 -56 -17 41 194 80 175
83 185 98 364 16 187 25 214 104 311 55 68 77 106 67 116 -13 13 -51 -22 -141
-129 -53 -61 -123 -143 -156 -182 -33 -38 -74 -98 -91 -132 l-32 -63 2 -329 2
-328 -37 -79 c-54 -118 -136 -308 -173 -401 -18 -46 -38 -83 -44 -83 -15 0 -2
119 28 238 30 123 33 252 10 418 -22 153 -22 153 86 364 28 54 37 90 21 90
-28 0 -131 -161 -242 -377 -99 -192 -100 -274 -9 -641 44 -175 50 -212 47
-280 -3 -61 -37 -248 -83 -459 -3 -13 -10 -23 -15 -23 -6 0 -10 75 -10 198 0
218 5 190 -86 422 -47 121 -50 188 -11 311 42 133 34 183 -16 92 -55 -103
-137 -416 -137 -526 0 -110 26 -186 142 -418 l108 -216 0 -327 c0 -204 -4
-326 -10 -326 -13 0 -35 82 -60 224 -25 143 -57 224 -140 351 -93 145 -94 147
-100 334 -10 318 -60 166 -77 -230 -11 -276 1 -306 265 -638 63 -79 122 -158
132 -175 20 -34 123 -488 117 -515 -4 -21 -36 40 -71 139 -48 134 -84 188
-207 315 -129 133 -148 164 -179 285 -26 100 -38 126 -52 112 -20 -20 63 -473
102 -557 31 -66 179 -213 340 -338 l125 -96 39 -98 c21 -54 67 -161 102 -238
35 -77 64 -145 64 -152 0 -42 -47 19 -134 175 -78 139 -130 190 -246 238 -118
48 -172 97 -230 203 -23 45 -47 81 -52 81 -43 0 65 -253 190 -442 63 -97 111
-134 315 -239 99 -52 194 -107 210 -124 16 -16 72 -95 124 -175 53 -80 131
-191 175 -248 80 -104 97 -132 81 -132 -23 0 -99 69 -162 149 -115 144 -158
176 -296 221 -157 51 -233 107 -328 243 -46 66 -67 77 -67 36 0 -57 195 -363
287 -450 86 -83 160 -117 507 -241 l170 -60 155 -147 c86 -80 184 -171 219
-200 65 -56 74 -71 45 -71 -30 0 -114 55 -213 139 -142 121 -216 151 -375 151
-93 0 -145 19 -224 80 -67 52 -91 61 -91 34 0 -26 48 -80 174 -196 228 -210
281 -229 720 -269 l139 -13 101 -64 c56 -36 166 -103 246 -149 181 -106 189
-113 130 -113 -48 0 -139 38 -213 88 -113 78 -136 84 -337 93 -209 9 -252 18
-352 79 -75 45 -88 48 -88 21 0 -44 210 -200 389 -289 l94 -47 139 -3 c76 -2
227 1 336 7 l197 11 90 -39 c50 -21 153 -62 230 -90 77 -28 156 -59 175 -68
32 -14 33 -16 15 -24 -52 -21 -129 -9 -239 36 -59 24 -120 47 -135 50 -15 3
-70 -4 -122 -16 -73 -18 -125 -23 -234 -23 -132 -1 -145 1 -229 31 -49 18 -94
29 -99 26 -18 -11 42 -58 128 -98 50 -24 151 -64 225 -91 l135 -48 165 0 c185
-1 231 7 433 76 l121 40 130 -26 c72 -14 192 -35 265 -47 144 -22 185 -34 177
-48 -11 -17 -90 -19 -206 -6 -140 15 -172 10 -295 -43 -49 -21 -112 -45 -140
-53 -54 -15 -256 -19 -337 -7 -40 6 -48 5 -48 -8 0 -45 265 -97 560 -110 l155
-7 103 52 c56 28 148 79 205 112 114 69 145 81 182 71 25 -7 24 -9 -37 -54
-35 -25 -146 -124 -248 -218 -102 -95 -208 -188 -235 -206 -46 -31 -179 -74
-227 -74 -10 0 -18 -4 -18 -9 0 -20 226 -58 374 -63 l99 -3 38 113 c96 286
270 502 404 502 78 0 192 -90 276 -218 60 -91 91 -157 140 -292 l37 -105 99 1
c95 1 294 32 351 56 26 11 24 12 -32 19 -72 10 -164 52 -231 106 -28 22 -111
96 -185 166 -74 69 -173 156 -219 194 -46 37 -86 74 -89 82 -10 30 74 3 173
-56 55 -33 148 -85 206 -116 102 -55 109 -57 180 -57 233 1 609 56 649 95 25
25 -1 32 -90 24 -47 -4 -134 -4 -193 1 -98 8 -119 14 -229 61 l-121 52 -131
-8 c-185 -11 -256 -7 -256 15 0 10 71 25 195 40 50 6 157 24 238 41 l148 30
100 -35 c197 -71 248 -80 429 -81 l165 0 139 47 c217 75 398 169 373 195 -4 3
-46 -9 -95 -28 -86 -34 -89 -34 -237 -33 -126 0 -165 5 -245 26 l-95 25 -125
-51 c-110 -44 -134 -50 -199 -50 -45 -1 -76 3 -78 10 -2 6 68 36 159 69 90 32
209 77 265 101 l101 43 179 -10 c260 -16 463 -8 533 19 136 54 432 263 438
310 2 12 0 22 -3 22 -4 0 -45 -21 -91 -46 -102 -55 -188 -73 -356 -74 -158 0
-201 -11 -305 -77 -118 -74 -180 -103 -227 -103 -34 0 -37 2 -25 16 7 8 67 47
133 86 67 38 175 105 241 148 l120 78 195 17 c391 34 445 56 680 282 105 100
160 165 160 190 0 23 -20 14 -84 -36 -96 -76 -115 -83 -260 -92 -160 -11 -211
-32 -341 -141 -115 -96 -194 -148 -223 -148 -32 0 -26 7 91 107 56 48 154 138
218 200 l116 113 189 69 c360 131 405 152 481 224 87 82 293 402 293 454 0 42
-29 25 -84 -49 -97 -132 -155 -173 -318 -227 -93 -31 -174 -86 -244 -167 -130
-151 -214 -228 -214 -195 0 5 45 70 100 145 99 133 265 380 276 411 3 8 85 53
181 100 198 96 286 154 345 228 71 89 225 428 211 464 -8 21 -21 6 -59 -68
-51 -102 -93 -143 -193 -190 -47 -23 -105 -50 -129 -61 -48 -23 -100 -89 -178
-231 -93 -168 -143 -197 -72 -42 23 50 69 156 102 236 l61 147 131 106 c172
138 279 239 309 290 39 67 146 553 130 594 -11 31 -33 -10 -60 -111 -14 -54
-35 -117 -46 -139 -11 -22 -71 -91 -132 -152 -121 -120 -159 -179 -216 -335
-17 -45 -37 -94 -46 -109 l-14 -27 -1 25 c-1 43 90 463 110 505 10 22 61 91
114 154 182 217 268 353 287 458 14 69 6 283 -16 460 -17 134 -22 156 -39 150
-7 -2 -13 -58 -16 -163 -6 -181 -10 -194 -114 -359 -80 -127 -100 -186 -146
-430 -14 -74 -27 -116 -40 -129 -11 -11 -21 -18 -23 -15 -2 2 0 49 4 104 4 55
7 206 8 336 l1 236 96 187 c143 279 162 345 143 504 -22 193 -118 502 -155
502 -21 0 -17 -39 11 -127 49 -158 45 -197 -41 -385 l-54 -117 0 -203 c0 -262
-17 -292 -50 -93 -7 39 -27 140 -46 226 l-35 156 50 184 c70 256 82 321 83
424 0 132 -25 199 -174 463 -88 155 -148 227 -148 177 0 -9 25 -66 56 -128 69
-136 75 -185 49 -373 -22 -155 -17 -230 24 -388 34 -129 42 -226 16 -192 -8
10 -35 69 -61 130 -26 61 -80 185 -121 276 l-75 165 10 260 c15 429 17 424
-227 700 -136 154 -167 185 -180 185 -23 0 -9 -29 44 -96 74 -93 93 -135 105
-235 38 -311 37 -310 115 -479 62 -135 78 -181 73 -212 -2 -18 -23 5 -97 112
-52 74 -133 187 -181 250 l-86 115 -12 153 c-15 196 -35 288 -82 390 -33 69
-55 98 -127 171 -137 136 -347 311 -374 311 -24 0 -2 -32 67 -100 97 -97 110
-120 135 -232 26 -125 60 -190 177 -340 105 -134 146 -203 140 -240 -3 -20
-14 -13 -103 69 -55 51 -145 134 -200 184 -55 50 -120 109 -145 132 -39 36
-49 53 -64 112 -33 121 -96 297 -133 368 -48 91 -108 147 -217 203 -50 26
-122 67 -161 91 -84 52 -102 55 -81 15 8 -16 22 -34 31 -42 8 -7 50 -72 92
-144 71 -120 89 -143 224 -276 147 -146 197 -210 163 -210 -19 0 -266 154
-334 208 -25 20 -92 81 -150 137 -163 157 -223 196 -360 234 -202 56 -623 51
-695 -9 -9 -7 -13 -15 -10 -18 2 -3 46 -10 97 -17 51 -7 116 -22 145 -35 30
-13 112 -72 195 -142 79 -65 163 -130 188 -143 77 -39 153 -49 349 -42 l176 6
95 -56 c139 -82 299 -192 310 -214 9 -15 6 -20 -15 -25 -54 -14 -122 3 -255
63 -74 34 -153 69 -175 78 -46 19 -145 21 -251 5 -38 -6 -136 -13 -219 -16
-173 -6 -195 -9 -195 -28 0 -9 18 -16 49 -20 74 -10 173 -47 308 -115 l123
-61 147 0 c82 0 255 5 386 11 l237 11 68 -58 c213 -186 382 -358 382 -391 0
-13 -8 -14 -41 -9 -58 9 -113 40 -199 110 -156 129 -175 136 -482 171 -123 14
-239 29 -258 35 -43 12 -80 13 -80 1 0 -5 21 -19 48 -31 26 -12 71 -33 100
-47 29 -13 99 -62 156 -107 146 -117 150 -118 520 -171 275 -39 331 -53 368
-92 43 -46 156 -209 235 -337 66 -109 86 -156 66 -156 -22 0 -82 49 -151 122
-193 207 -205 214 -461 288 -95 28 -204 64 -241 80 -38 17 -76 30 -86 30 -15
0 -14 -4 7 -26 13 -14 36 -32 51 -40 42 -22 106 -81 206 -191 51 -57 113 -115
138 -129 25 -15 136 -59 247 -99 250 -90 358 -133 374 -148 45 -46 233 -561
216 -590 -9 -15 -73 56 -120 133 -25 41 -70 112 -100 156 -61 93 -86 112 -324
242 -80 44 -177 100 -215 126 -96 64 -100 37 -7 -54 49 -49 87 -100 137 -188
38 -66 88 -139 112 -163 23 -23 161 -119 306 -214 l263 -173 17 -83 c25 -119
58 -341 58 -384 0 -25 -4 -35 -12 -33 -16 5 -59 91 -93 188 -55 155 -107 216
-305 362 -63 46 -137 109 -163 139 -26 29 -47 47 -47 40 0 -8 25 -91 55 -184
76 -231 98 -263 325 -466 58 -52 142 -129 186 -173 l82 -78 -5 -113 c-6 -171
-22 -409 -29 -434 -4 -13 -11 -23 -16 -23 -19 0 -39 75 -53 207 -22 195 -40
230 -220 423 -58 63 -124 141 -146 174 -21 32 -39 54 -39 50 0 -5 7 -67 15
-139 27 -230 36 -251 194 -470 135 -187 176 -245 211 -309 l33 -58 -18 -102
c-18 -104 -82 -343 -109 -408 -22 -53 -33 -54 -47 -7 -10 33 -10 65 1 168 8
69 14 147 14 173 -1 55 -44 150 -141 311 -70 116 -103 191 -103 233 0 43 -17
17 -24 -38 -4 -29 -11 -113 -16 -187 -10 -163 -5 -184 83 -377 78 -169 167
-403 167 -438 0 -14 -11 -55 -25 -91 -34 -92 -192 -399 -216 -421 -46 -41 -44
33 5 185 69 213 69 221 -26 505 -33 99 -61 204 -63 234 -5 68 -11 74 -24 25
-5 -21 -29 -108 -52 -193 -57 -207 -58 -273 -6 -455 58 -206 89 -355 84 -404
-6 -52 -67 -146 -220 -336 -207 -258 -228 -245 -84 50 94 192 94 196 62 412
-21 134 -26 198 -22 261 3 45 3 82 -1 82 -14 -1 -161 -326 -188 -415 -26 -84
-27 -102 -27 -265 0 -96 7 -224 15 -283 l15 -108 -76 -71 c-159 -149 -360
-308 -388 -308 -38 0 1 91 79 185 151 181 166 204 178 257 6 29 15 123 20 210
7 117 15 170 31 212 28 77 19 90 -21 30 -19 -27 -72 -98 -118 -159 -90 -117
-173 -275 -191 -360 -5 -27 -17 -106 -25 -175 -31 -239 -34 -254 -69 -288 -52
-49 -421 -262 -455 -262 -45 0 25 78 148 164 132 93 150 125 235 421 26 88 59
186 75 218 16 31 25 57 20 57 -15 0 -258 -231 -310 -294 -60 -73 -104 -161
-160 -321 -90 -257 -110 -290 -203 -334 -76 -36 -371 -135 -451 -151 -136 -28
-77 37 128 142 189 95 214 120 312 310 58 112 93 168 136 214 103 109 89 106
-187 -52 -152 -86 -223 -156 -370 -363 -116 -162 -220 -283 -264 -305 -28 -15
-173 -40 -316 -56 -110 -12 -116 -12 -134 -1 -33 21 33 63 170 107 169 54 222
93 330 245 37 53 97 123 133 156 69 64 76 73 50 73 -29 0 -358 -111 -399 -135
-48 -28 -153 -136 -293 -303 -56 -68 -117 -132 -135 -142 -39 -24 -163 -28
-205 -6 -34 18 -104 92 -209 221 -105 131 -190 210 -256 240 -69 32 -361 125
-390 125 -20 -1 -20 -2 8 -22 65 -48 138 -128 203 -223 76 -111 129 -158 219
-192 32 -12 101 -38 153 -58 123 -47 158 -76 105 -89 -52 -13 -409 41 -451 69
-48 31 -128 125 -231 270 -149 209 -261 320 -413 404 -63 35 -139 77 -168 94
-29 16 -56 26 -59 23 -4 -3 21 -34 54 -68 74 -78 98 -116 154 -243 61 -139
111 -188 293 -286 151 -81 229 -140 210 -159 -8 -8 -26 -7 -72 4 -108 29 -416
137 -474 168 -69 36 -90 72 -173 298 -101 271 -110 287 -264 443 -135 138
-208 203 -216 195 -3 -3 8 -29 24 -59 16 -30 50 -126 76 -214 54 -188 88 -278
122 -323 13 -17 68 -65 121 -106 102 -77 173 -147 154 -154 -15 -5 -85 27
-226 105 -156 85 -265 159 -276 186 -5 12 -19 99 -31 192 -11 94 -27 202 -35
240 -18 89 -97 248 -169 340 -30 39 -78 100 -106 138 -48 63 -80 88 -64 50 24
-58 35 -117 44 -248 18 -237 24 -254 164 -432 88 -112 127 -178 127 -213 0
-41 -28 -24 -195 115 -60 51 -149 130 -197 176 l-86 84 15 140 c19 185 12 421
-16 524 -18 67 -168 390 -181 391 -4 0 -6 -46 -6 -102 0 -57 -8 -161 -18 -232
-27 -192 -21 -250 41 -372 84 -167 121 -274 94 -274 -22 0 -327 389 -373 477
l-22 42 32 146 c18 81 46 192 63 248 38 132 48 208 38 282 -9 65 -100 417
-106 411 -2 -2 -9 -35 -14 -72 -5 -38 -39 -157 -75 -264 -63 -186 -66 -198
-61 -265 3 -39 21 -117 42 -178 38 -117 56 -227 36 -227 -24 0 -152 241 -236
443 -33 81 -35 92 -24 125 29 92 126 329 182 447 59 124 61 134 65 220 5 101
-14 335 -27 348 -5 5 -14 -15 -21 -47 -8 -38 -33 -91 -77 -163 -159 -258 -163
-272 -144 -505 11 -146 6 -213 -18 -213 -7 0 -22 23 -33 50 -29 72 -95 337
-109 437 l-13 85 33 53 c18 30 100 146 181 260 82 114 158 224 169 246 21 39
84 401 71 409 -3 2 -18 -20 -33 -48 -15 -29 -88 -119 -163 -202 -74 -82 -147
-169 -160 -192 -20 -34 -29 -72 -45 -199 -11 -86 -27 -173 -35 -192 -13 -33
-16 -34 -31 -20 -17 18 -32 217 -33 449 l0 117 68 64 c37 36 126 119 197 185
157 145 204 195 238 254 32 56 143 386 133 396 -4 4 -12 0 -17 -9 -25 -44 -74
-89 -199 -181 -214 -157 -223 -169 -310 -388 -78 -196 -108 -231 -95 -111 12
111 64 403 78 431 15 31 106 97 352 255 212 136 244 167 334 321 35 60 89 135
127 175 99 104 82 113 -56 31 -63 -38 -169 -97 -235 -132 -95 -50 -135 -78
-190 -134 -39 -38 -83 -95 -99 -125 -73 -139 -164 -256 -184 -236 -17 18 95
335 176 496 56 114 51 110 307 205 391 143 375 136 468 239 121 134 167 178
230 220 90 60 74 71 -40 29 -54 -19 -165 -55 -248 -79 -234 -69 -242 -74 -441
-284 -80 -85 -141 -127 -158 -110 -24 24 308 514 356 525 44 9 204 34 388 60
204 28 272 41 311 61 14 7 76 51 139 99 103 77 152 106 274 159 30 13 36 20
27 29 -9 9 -27 7 -79 -6 -37 -9 -141 -24 -232 -32 -322 -29 -301 -22 -561
-209 -71 -51 -90 -60 -136 -64 -35 -3 -53 -1 -53 7 0 17 194 214 329 334 l125
110 120 -7 c67 -3 241 -9 387 -13 l266 -6 104 55 c119 63 213 102 284 118 141
30 128 50 -35 50 -63 0 -173 7 -245 16 -71 9 -166 14 -210 12 -76 -3 -88 -7
-241 -81 -151 -72 -165 -77 -228 -77 -122 0 -83 40 229 230 l120 73 165 -12
c262 -19 324 0 520 167 180 152 221 174 363 197 50 8 93 17 96 21 11 11 -31
33 -83 43 -28 6 -103 16 -166 21 -355 34 -641 -72 -855 -314 -31 -35 -77 -79
-103 -97 -76 -56 -326 -209 -339 -209 -36 0 1 48 141 184 157 155 191 196 244
302 17 34 53 91 80 127 27 35 52 69 56 76 15 23 -23 9 -109 -42z"/>
<path d="M5810 8351 c-33 -9 -39 -45 -39 -238 -1 -84 -4 -153 -8 -152 -5 0
-53 60 -108 132 l-100 132 -3 -488 -2 -487 110 -149 110 -149 0 -96 0 -97 -76
52 c-160 108 -245 128 -609 149 -341 19 -511 52 -680 134 -120 58 -165 99
-212 192 -42 85 -72 111 -135 120 -93 13 -158 -46 -158 -141 0 -65 23 -101 93
-145 43 -27 55 -39 50 -54 -15 -53 -832 -1835 -935 -2041 l-40 -79 58 -55
c412 -383 1041 -477 1573 -235 97 45 249 146 330 221 l64 59 -25 44 c-26 45
-368 783 -523 1130 -46 102 -155 343 -243 535 -87 193 -162 360 -166 373 -6
19 -4 22 18 22 41 0 590 -107 746 -145 265 -65 468 -142 605 -230 77 -49 177
-145 226 -217 l39 -57 -2 -1485 c-2 -816 -6 -1487 -9 -1491 -4 -3 -39 10 -79
30 -39 20 -78 35 -86 33 -10 -2 1 -37 45 -138 90 -210 203 -450 211 -450 8 0
31 49 166 352 83 185 102 238 89 238 -4 0 -37 -13 -75 -30 -38 -17 -75 -30
-83 -30 -27 0 -30 211 -25 1612 l5 1357 26 44 c109 185 327 318 687 420 161
45 248 65 562 126 306 60 358 67 358 53 0 -15 -198 -460 -515 -1157 -290 -638
-389 -849 -424 -901 l-21 -32 67 -59 c200 -177 395 -279 629 -327 201 -42 484
-40 663 5 209 52 445 180 630 341 l42 36 -89 184 c-120 243 -769 1665 -888
1944 -3 6 20 30 51 53 68 52 95 93 95 146 0 88 -66 150 -151 142 -64 -5 -102
-36 -137 -110 -53 -110 -161 -192 -326 -246 -163 -54 -277 -73 -596 -96 -351
-26 -446 -48 -577 -136 l-72 -48 -12 36 c-26 79 2 148 137 333 l94 129 0 468
c0 257 -4 474 -8 480 -5 9 -39 -28 -103 -112 -79 -105 -111 -137 -121 -122 -1
1 -4 85 -7 187 l-6 185 -40 2 c-22 1 -51 -2 -65 -6z m68 -164 c3 -79 -6 -107
-34 -107 -17 0 -29 41 -29 105 0 66 9 87 37 83 21 -3 23 -9 26 -81z m196 -269
c-27 -55 -125 -178 -141 -178 -12 0 -14 9 -10 41 5 40 39 98 121 209 l41 55 3
-47 c2 -29 -3 -59 -14 -80z m-419 71 c70 -78 115 -158 115 -206 0 -23 -4 -43
-9 -43 -13 0 -62 58 -112 132 -31 45 -44 75 -47 110 -3 29 0 48 6 48 5 0 26
-18 47 -41z m60 -314 c45 -65 55 -88 55 -120 l-1 -40 -45 50 c-93 102 -137
187 -119 232 6 16 9 14 31 -12 14 -16 49 -66 79 -110z m371 50 c-8 -32 -146
-216 -157 -209 -14 9 -10 62 7 97 9 18 46 70 83 117 l66 85 3 -34 c2 -19 1
-44 -2 -56z m-351 -290 c34 -57 47 -125 25 -125 -12 0 -124 140 -145 180 -16
31 -20 82 -7 94 10 10 83 -76 127 -149z m355 112 c0 -32 -9 -55 -37 -97 -82
-123 -133 -169 -133 -121 0 43 135 259 163 261 4 0 7 -19 7 -43z m-407 -260
c30 -39 62 -86 71 -104 17 -34 22 -93 7 -93 -14 0 -87 90 -126 156 -32 53 -44
102 -29 117 10 10 19 2 77 -76z m407 35 c0 -25 -10 -54 -30 -86 -39 -60 -120
-147 -131 -140 -14 8 -11 42 7 77 22 43 134 187 145 187 5 0 9 -17 9 -38z
m1570 -380 c172 -364 880 -1939 880 -1957 0 -7 -7 -16 -16 -19 -20 -8 -1807
-8 -1827 0 -20 7 -53 -67 636 1444 273 600 278 610 288 604 4 -2 21 -34 39
-72z m-3488 -117 c236 -502 838 -1837 838 -1856 0 -10 -1845 -8 -1855 2 -9 9
13 59 265 614 360 793 652 1416 663 1412 5 -1 45 -79 89 -172z"/>
</g>
</svg>
